<?xml version="1.0" encoding="utf-8"?>
<!-- Generator: Adobe Illustrator 26.0.3, SVG Export Plug-In . SVG Version: 6.00 Build 0)  -->
<svg version="1.1" id="Layer_1" xmlns="http://www.w3.org/2000/svg" xmlns:xlink="http://www.w3.org/1999/xlink" x="0px" y="0px"
	 viewBox="0 0 24 24" style="enable-background:new 0 0 24 24;" xml:space="preserve">
<style type="text/css">
	.st0{fill:none;}
</style>
<path class="st0" d="M24,0v24H0V0"/>
<g>
	<path fill="#0D21A1" d="M11.9,18.1c-0.3-0.5-0.7-0.9-1.1-1.2c0,0-0.1-0.1-0.1-0.1c0,0,0.1,0.1,0.1,0.1c-0.7-0.5-1.6-0.8-2.5-0.8
		c0,1.9,1.2,3.6,2.9,4.2c0.2,0.1,0.5,0.1,0.7,0.2c0.2,0,0.5-0.1,0.7-0.2c1.7-0.6,2.9-2.2,2.9-4.2C14.1,16.1,12.7,16.9,11.9,18.1z
		 M10.8,16.9C10.8,16.9,10.8,16.9,10.8,16.9C10.8,16.9,10.8,16.9,10.8,16.9C10.8,16.9,10.8,16.9,10.8,16.9z"/>
	<path fill="#0D21A1" d="M11.9,14.4c-0.3-0.5-0.7-0.9-1.1-1.2c0,0-0.1-0.1-0.1-0.1c0,0,0.1,0.1,0.1,0.1c-0.7-0.5-1.6-0.8-2.5-0.8
		c0,1.9,1.2,3.6,2.9,4.2c0.2,0.1,0.5,0.1,0.7,0.2c0.2,0,0.5-0.1,0.7-0.2c1.7-0.6,2.9-2.2,2.9-4.2C14.1,12.4,12.7,13.2,11.9,14.4z
		 M10.8,13.2C10.8,13.2,10.8,13.2,10.8,13.2C10.8,13.2,10.8,13.2,10.8,13.2C10.8,13.2,10.8,13.2,10.8,13.2z"/>
	<path fill="#0D21A1" d="M11.9,10.8c-0.3-0.5-0.7-0.9-1.1-1.2c0,0-0.1-0.1-0.1-0.1c0,0,0.1,0.1,0.1,0.1c-0.7-0.5-1.6-0.8-2.5-0.8
		c0,1.9,1.2,3.6,2.9,4.2c0.2,0.1,0.5,0.1,0.7,0.2c0.2,0,0.5-0.1,0.7-0.2c1.7-0.6,2.9-2.2,2.9-4.2C14.1,8.8,12.7,9.6,11.9,10.8z
		 M10.8,9.7C10.8,9.7,10.8,9.7,10.8,9.7C10.8,9.7,10.8,9.7,10.8,9.7C10.8,9.7,10.8,9.7,10.8,9.7z"/>
	<path fill="#0D21A1" d="M11.9,7.1c-0.3-0.5-0.7-0.9-1.1-1.2c0,0-0.1-0.1-0.1-0.1c0,0,0.1,0.1,0.1,0.1c-0.7-0.5-1.6-0.8-2.5-0.8
		c0,1.9,1.2,3.6,2.9,4.2c0.2,0.1,0.5,0.1,0.7,0.2c0.2,0,0.5-0.1,0.7-0.2c1.7-0.6,2.9-2.2,2.9-4.2C14.1,5.1,12.7,5.9,11.9,7.1z
		 M10.8,5.9C10.8,5.9,10.8,5.9,10.8,5.9C10.8,5.9,10.8,5.9,10.8,5.9C10.8,5.9,10.8,5.9,10.8,5.9z"/>
	<path fill="#0D21A1" d="M13.5,4.8C13.5,3.6,13,2.3,12,1.4c-1,1-1.5,2.2-1.6,3.4C11,5.1,11.5,5.5,12,6C12.5,5.5,13,5.1,13.5,4.8z"/>
</g>
<path fill="#0D21A1" d="M19.8,22.2c0,0,1.4-1.4,1.4-1.4L3.7,3.3L2.3,4.7 M6.9,9.4l9.2,9.2"/>
</svg>
